<svg xmlns="http://www.w3.org/2000/svg" xmlns:xlink="http://www.w3.org/1999/xlink" width="500" zoomAndPan="magnify" viewBox="0 0 375 374.999991" height="500" preserveAspectRatio="xMidYMid meet" version="1.0"><defs><clipPath id="1a2b4c5788"><path d="M 186 212 L 202 212 L 202 227.480469 L 186 227.480469 Z M 186 212 " clip-rule="nonzero"/></clipPath><clipPath id="9c72866812"><path d="M 190 121.730469 L 209 121.730469 L 209 140 L 190 140 Z M 190 121.730469 " clip-rule="nonzero"/></clipPath></defs><path fill="#ffffff" d="M 189.597656 171.621094 C 189.597656 171.621094 216.34375 163.382812 227.253906 179.628906 C 238.164062 195.875 223.136719 212.085938 208.425781 201.628906 C 190.527344 188.914062 189.597656 171.621094 189.597656 171.621094 Z M 189.597656 171.621094 " fill-opacity="1" fill-rule="nonzero"/><path fill="#232323" d="M 217.917969 205.476562 C 214.640625 205.476562 211.265625 204.304688 208.113281 202.066406 C 204.058594 199.210938 200.523438 195.824219 197.503906 191.898438 C 195.179688 188.867188 193.28125 185.589844 191.800781 182.066406 C 189.328125 176.136719 189.074219 171.835938 189.0625 171.652344 L 189.042969 171.238281 L 189.4375 171.117188 C 194.3125 169.761719 199.277344 169.058594 204.335938 169.011719 C 209.078125 168.992188 213.324219 169.675781 216.960938 171.035156 C 221.535156 172.746094 225.148438 175.542969 227.695312 179.34375 C 230.441406 183.433594 231.753906 187.8125 231.484375 192.003906 C 231.25 195.785156 229.703125 199.253906 227.128906 201.753906 C 225.980469 202.867188 224.671875 203.742188 223.207031 204.382812 C 221.738281 205.023438 220.207031 205.382812 218.609375 205.46875 C 218.382812 205.46875 218.152344 205.476562 217.917969 205.476562 Z M 190.175781 172.011719 C 190.304688 173.226562 190.835938 176.964844 192.8125 181.695312 C 195.042969 187.011719 199.613281 194.710938 208.738281 201.195312 C 214.851562 205.535156 221.78125 205.453125 226.394531 200.980469 C 230.785156 196.722656 232.617188 188.5625 226.816406 179.925781 C 221.320312 171.734375 211.574219 170.039062 204.363281 170.066406 C 199.550781 170.117188 194.820312 170.765625 190.175781 172.011719 Z M 190.175781 172.011719 " fill-opacity="1" fill-rule="nonzero"/><path fill="#232323" d="M 215.960938 182.445312 C 202.972656 181.917969 197.617188 176.339844 195.410156 171.75 L 196.375 171.289062 C 198.445312 175.621094 203.546875 180.882812 216.007812 181.390625 Z M 215.960938 182.445312 " fill-opacity="1" fill-rule="nonzero"/><path fill="#232323" d="M 218.585938 185.574219 C 216.507812 185.503906 215.449219 184.09375 215.511719 182.25 C 215.574219 180.40625 216.734375 178.820312 218.8125 178.890625 C 220.890625 178.957031 224.34375 180.617188 224.28125 182.460938 C 224.21875 184.304688 220.664062 185.644531 218.585938 185.574219 Z M 218.585938 185.574219 " fill-opacity="1" fill-rule="nonzero"/><path fill="#ffffff" d="M 185.472656 171.621094 C 185.472656 171.621094 158.726562 163.382812 147.816406 179.628906 C 136.90625 195.875 151.933594 212.085938 166.644531 201.628906 C 184.542969 188.914062 185.472656 171.621094 185.472656 171.621094 Z M 185.472656 171.621094 " fill-opacity="1" fill-rule="nonzero"/><path fill="#232323" d="M 157.152344 205.476562 C 156.921875 205.476562 156.6875 205.476562 156.449219 205.457031 C 154.855469 205.375 153.324219 205.015625 151.859375 204.375 C 150.394531 203.738281 149.089844 202.863281 147.941406 201.753906 C 145.367188 199.253906 143.820312 195.785156 143.578125 191.992188 C 143.308594 187.804688 144.621094 183.425781 147.371094 179.332031 C 149.921875 175.53125 153.527344 172.738281 158.101562 171.027344 C 161.742188 169.664062 165.992188 168.980469 170.730469 169 C 175.785156 169.046875 180.75 169.75 185.625 171.105469 L 186.023438 171.230469 L 186 171.644531 C 185.988281 171.820312 185.734375 176.128906 183.261719 182.058594 C 181.785156 185.578125 179.882812 188.855469 177.558594 191.886719 C 174.539062 195.8125 171.003906 199.203125 166.949219 202.054688 C 163.804688 204.304688 160.4375 205.476562 157.152344 205.476562 Z M 170.570312 170.066406 C 163.378906 170.066406 153.71875 171.789062 148.257812 179.925781 C 142.453125 188.5625 144.292969 196.722656 148.683594 200.980469 C 153.296875 205.453125 160.226562 205.542969 166.339844 201.195312 C 175.464844 194.710938 180.035156 187.007812 182.257812 181.695312 C 184.238281 176.964844 184.769531 173.226562 184.894531 172.011719 C 180.246094 170.765625 175.511719 170.117188 170.699219 170.066406 Z M 170.570312 170.066406 " fill-opacity="1" fill-rule="nonzero"/><path fill="#232323" d="M 205.511719 206.828125 C 205.179688 207.390625 204.8125 207.929688 204.421875 208.453125 C 196.171875 219.363281 178.574219 215.957031 171.25 208.582031 C 170.085938 207.449219 169.183594 206.136719 168.546875 204.640625 C 168.246094 203.894531 167.992188 203.132812 167.777344 202.359375 C 167.265625 200.5 166.972656 198.605469 166.894531 196.679688 C 166.828125 194.957031 166.898438 193.238281 167.101562 191.527344 C 167.351562 189.433594 167.75 187.371094 168.296875 185.339844 C 168.722656 183.742188 169.21875 182.191406 169.753906 180.710938 C 170.527344 178.574219 171.40625 176.484375 172.390625 174.4375 C 173.1875 172.769531 173.964844 171.316406 174.617188 170.148438 C 175.734375 168.167969 176.511719 167.007812 176.511719 167.007812 L 193.246094 167.925781 C 195.234375 170.261719 197.074219 172.703125 198.773438 175.253906 C 199.691406 176.621094 200.648438 178.136719 201.578125 179.753906 C 202.359375 181.101562 203.117188 182.523438 203.824219 183.996094 C 204.53125 185.464844 205.15625 186.929688 205.710938 188.445312 C 206.304688 190.054688 206.78125 191.699219 207.136719 193.378906 C 207.492188 195.03125 207.679688 196.707031 207.691406 198.398438 C 207.695312 199.535156 207.597656 200.664062 207.394531 201.78125 C 207.070312 203.578125 206.445312 205.257812 205.511719 206.828125 Z M 205.511719 206.828125 " fill-opacity="1" fill-rule="nonzero"/><path fill="#ffcd3f" d="M 205.710938 188.453125 C 203.585938 189.109375 201.417969 189.59375 199.210938 189.90625 C 193.816406 190.675781 187.996094 190.492188 181.921875 189.363281 C 178.957031 188.804688 176.039062 188.058594 173.167969 187.125 C 171.304688 186.515625 169.664062 185.894531 168.300781 185.34375 C 168.726562 183.746094 169.222656 182.199219 169.757812 180.71875 C 174.015625 182.484375 178.410156 183.792969 182.941406 184.644531 C 190.636719 186.0625 197.625 185.84375 203.824219 184.003906 C 204.519531 185.445312 205.160156 186.9375 205.710938 188.453125 Z M 205.710938 188.453125 " fill-opacity="1" fill-rule="nonzero"/><path fill="#ffcd3f" d="M 207.695312 198.40625 C 204.449219 199.757812 201.085938 200.675781 197.601562 201.164062 C 192.203125 201.929688 186.386719 201.753906 180.320312 200.621094 C 177.355469 200.0625 174.4375 199.316406 171.566406 198.382812 C 169.796875 197.804688 168.226562 197.21875 166.910156 196.6875 C 166.84375 194.964844 166.910156 193.246094 167.113281 191.535156 C 171.691406 193.523438 176.433594 194.980469 181.339844 195.902344 C 191.144531 197.707031 199.792969 196.859375 207.148438 193.386719 C 207.5 195.039062 207.683594 196.714844 207.695312 198.40625 Z M 207.695312 198.40625 " fill-opacity="1" fill-rule="nonzero"/><path fill="#ffcd3f" d="M 205.511719 206.828125 C 205.179688 207.390625 204.8125 207.929688 204.421875 208.453125 C 201.984375 209.359375 199.488281 210.03125 196.925781 210.46875 C 191.554688 211.398438 185.734375 211.386719 179.625 210.433594 C 176.796875 209.992188 174.003906 209.375 171.25 208.582031 C 170.085938 207.449219 169.183594 206.136719 168.546875 204.640625 C 168.246094 203.894531 167.992188 203.132812 167.777344 202.359375 C 171.910156 203.890625 176.152344 205 180.507812 205.683594 C 190.890625 207.28125 199.910156 205.96875 207.394531 201.78125 C 207.070312 203.578125 206.445312 205.257812 205.511719 206.828125 Z M 205.511719 206.828125 " fill-opacity="1" fill-rule="nonzero"/><g clip-path="url(#1a2b4c5788)"><path fill="#232323" d="M 193.40625 212.578125 C 193.40625 212.578125 196.671875 223 201.449219 227.058594 C 201.546875 227.125 201.566406 227.203125 201.5 227.300781 C 201.4375 227.402344 201.355469 227.417969 201.257812 227.355469 C 198.507812 226.097656 192.128906 222.40625 186.519531 213.464844 Z M 193.40625 212.578125 " fill-opacity="1" fill-rule="nonzero"/></g><path fill="#ffcd3f" d="M 206.570312 157.703125 C 206.570312 169.804688 197.269531 175.339844 185.140625 175.339844 C 173.007812 175.339844 162.640625 169.804688 162.640625 157.703125 C 162.644531 156.988281 162.6875 156.277344 162.761719 155.566406 C 162.839844 154.855469 162.949219 154.152344 163.09375 153.453125 C 163.238281 152.753906 163.417969 152.066406 163.632812 151.382812 C 163.84375 150.703125 164.089844 150.03125 164.367188 149.375 C 164.644531 148.71875 164.957031 148.074219 165.296875 147.449219 C 165.636719 146.820312 166.007812 146.210938 166.410156 145.621094 C 166.808594 145.03125 167.238281 144.460938 167.695312 143.910156 C 168.152344 143.359375 168.632812 142.835938 169.140625 142.332031 C 169.648438 141.832031 170.179688 141.355469 170.734375 140.902344 C 171.289062 140.453125 171.867188 140.03125 172.460938 139.636719 C 173.058594 139.242188 173.671875 138.875 174.304688 138.542969 C 174.9375 138.207031 175.582031 137.90625 176.242188 137.632812 C 176.90625 137.359375 177.578125 137.121094 178.261719 136.917969 C 178.949219 136.710938 179.640625 136.539062 180.34375 136.398438 C 181.046875 136.261719 181.75 136.15625 182.464844 136.085938 C 183.175781 136.019531 183.890625 135.984375 184.605469 135.984375 C 185.320312 135.984375 186.035156 136.019531 186.746094 136.085938 C 187.457031 136.15625 188.164062 136.261719 188.867188 136.398438 C 189.566406 136.539062 190.261719 136.710938 190.945312 136.917969 C 191.628906 137.121094 192.304688 137.359375 192.964844 137.632812 C 193.625 137.90625 194.273438 138.207031 194.90625 138.542969 C 195.535156 138.875 196.152344 139.242188 196.746094 139.636719 C 197.34375 140.03125 197.917969 140.453125 198.472656 140.902344 C 199.027344 141.355469 199.558594 141.832031 200.066406 142.332031 C 200.574219 142.835938 201.058594 143.359375 201.515625 143.910156 C 201.96875 144.460938 202.398438 145.03125 202.800781 145.621094 C 203.199219 146.210938 203.570312 146.820312 203.914062 147.449219 C 204.253906 148.074219 204.5625 148.71875 204.839844 149.375 C 205.121094 150.03125 205.363281 150.703125 205.578125 151.382812 C 205.789062 152.066406 205.96875 152.753906 206.113281 153.453125 C 206.257812 154.152344 206.371094 154.855469 206.445312 155.566406 C 206.523438 156.277344 206.5625 156.988281 206.570312 157.703125 Z M 206.570312 157.703125 " fill-opacity="1" fill-rule="nonzero"/><path fill="#232323" d="M 173.695312 144.582031 C 173.730469 144.871094 173.867188 145.105469 174.101562 145.28125 C 174.328125 145.453125 174.582031 145.523438 174.867188 145.488281 L 178.398438 145.035156 C 178.535156 145.019531 178.664062 144.972656 178.785156 144.90625 C 178.90625 144.835938 179.007812 144.746094 179.09375 144.636719 C 179.175781 144.527344 179.238281 144.40625 179.273438 144.273438 C 179.3125 144.140625 179.320312 144.003906 179.304688 143.867188 C 179.257812 143.5 179.066406 143.234375 178.738281 143.066406 C 178.546875 142.96875 178.34375 142.9375 178.132812 142.964844 L 174.601562 143.414062 C 174.460938 143.433594 174.332031 143.476562 174.214844 143.546875 C 174.09375 143.613281 173.988281 143.703125 173.90625 143.8125 C 173.820312 143.921875 173.761719 144.042969 173.722656 144.175781 C 173.6875 144.3125 173.679688 144.445312 173.695312 144.585938 Z M 173.695312 144.582031 " fill-opacity="1" fill-rule="nonzero"/><path fill="#232323" d="M 196.765625 145.097656 C 196.730469 145.234375 196.675781 145.355469 196.59375 145.46875 C 196.507812 145.578125 196.410156 145.671875 196.289062 145.742188 C 196.171875 145.816406 196.042969 145.859375 195.90625 145.882812 C 195.769531 145.902344 195.632812 145.894531 195.496094 145.863281 L 192.039062 145.011719 C 191.90625 144.976562 191.78125 144.917969 191.671875 144.835938 C 191.5625 144.753906 191.46875 144.652344 191.398438 144.535156 C 191.328125 144.417969 191.28125 144.289062 191.257812 144.152344 C 191.238281 144.015625 191.242188 143.882812 191.273438 143.746094 C 191.308594 143.613281 191.363281 143.488281 191.445312 143.375 C 191.53125 143.265625 191.628906 143.171875 191.75 143.101562 C 191.867188 143.03125 191.996094 142.984375 192.132812 142.964844 C 192.273438 142.941406 192.40625 142.949219 192.542969 142.984375 L 196 143.835938 C 196.132812 143.867188 196.257812 143.925781 196.371094 144.007812 C 196.480469 144.089844 196.574219 144.191406 196.644531 144.308594 C 196.714844 144.425781 196.761719 144.554688 196.785156 144.691406 C 196.804688 144.828125 196.796875 144.964844 196.765625 145.097656 Z M 196.765625 145.097656 " fill-opacity="1" fill-rule="nonzero"/><path fill="#ffffff" d="M 185.597656 157.132812 C 185.597656 157.636719 185.550781 158.132812 185.453125 158.621094 C 185.355469 159.113281 185.210938 159.589844 185.015625 160.054688 C 184.824219 160.515625 184.589844 160.957031 184.3125 161.371094 C 184.03125 161.789062 183.714844 162.171875 183.359375 162.527344 C 183.003906 162.882812 182.617188 163.199219 182.203125 163.476562 C 181.785156 163.753906 181.34375 163.988281 180.878906 164.179688 C 180.414062 164.371094 179.9375 164.519531 179.445312 164.617188 C 178.953125 164.714844 178.457031 164.761719 177.953125 164.761719 C 177.453125 164.761719 176.953125 164.714844 176.460938 164.617188 C 175.96875 164.519531 175.492188 164.371094 175.027344 164.179688 C 174.5625 163.988281 174.125 163.753906 173.707031 163.476562 C 173.289062 163.199219 172.902344 162.882812 172.546875 162.527344 C 172.191406 162.171875 171.875 161.789062 171.597656 161.371094 C 171.316406 160.957031 171.082031 160.515625 170.890625 160.054688 C 170.699219 159.589844 170.554688 159.113281 170.457031 158.621094 C 170.355469 158.132812 170.308594 157.636719 170.308594 157.132812 C 170.308594 156.632812 170.355469 156.136719 170.457031 155.644531 C 170.554688 155.15625 170.699219 154.679688 170.890625 154.214844 C 171.082031 153.753906 171.316406 153.3125 171.597656 152.898438 C 171.875 152.480469 172.191406 152.09375 172.546875 151.742188 C 172.902344 151.386719 173.289062 151.070312 173.707031 150.792969 C 174.125 150.515625 174.5625 150.277344 175.027344 150.085938 C 175.492188 149.894531 175.96875 149.75 176.460938 149.652344 C 176.953125 149.554688 177.453125 149.507812 177.953125 149.507812 C 178.457031 149.503906 178.953125 149.550781 179.449219 149.644531 C 179.941406 149.742188 180.421875 149.886719 180.886719 150.074219 C 181.351562 150.265625 181.792969 150.5 182.210938 150.777344 C 182.628906 151.058594 183.015625 151.375 183.371094 151.726562 C 183.726562 152.082031 184.046875 152.46875 184.324219 152.886719 C 184.601562 153.304688 184.835938 153.746094 185.027344 154.207031 C 185.21875 154.671875 185.363281 155.152344 185.460938 155.644531 C 185.554688 156.136719 185.601562 156.632812 185.597656 157.132812 Z M 185.597656 157.132812 " fill-opacity="1" fill-rule="nonzero"/><path fill="#232323" d="M 179.933594 151.648438 C 180.308594 151.734375 180.667969 151.859375 181.019531 152.015625 C 181.367188 152.175781 181.695312 152.367188 182.007812 152.589844 C 182.316406 152.8125 182.605469 153.066406 182.867188 153.34375 C 183.125 153.625 183.359375 153.925781 183.558594 154.253906 C 183.761719 154.578125 183.929688 154.917969 184.0625 155.277344 C 184.195312 155.636719 184.292969 156.003906 184.355469 156.382812 C 184.417969 156.757812 184.441406 157.136719 184.425781 157.519531 C 184.414062 157.902344 184.363281 158.28125 184.273438 158.652344 C 184.1875 159.023438 184.0625 159.382812 183.90625 159.730469 C 183.746094 160.078125 183.554688 160.410156 183.328125 160.71875 C 183.105469 161.027344 182.851562 161.316406 182.574219 161.574219 C 182.292969 161.835938 181.988281 162.066406 181.664062 162.269531 C 181.335938 162.46875 180.996094 162.636719 180.636719 162.769531 C 180.277344 162.902344 179.90625 163 179.53125 163.0625 C 179.152344 163.125 178.769531 163.148438 178.386719 163.132812 C 178.003906 163.121094 177.625 163.070312 177.253906 162.980469 C 176.878906 162.894531 176.519531 162.769531 176.171875 162.613281 C 175.824219 162.453125 175.492188 162.261719 175.183594 162.039062 C 174.871094 161.816406 174.585938 161.5625 174.324219 161.285156 C 174.0625 161.003906 173.832031 160.703125 173.628906 160.375 C 173.429688 160.050781 173.261719 159.710938 173.125 159.351562 C 172.992188 158.992188 172.894531 158.625 172.832031 158.246094 C 172.773438 157.871094 172.746094 157.492188 172.761719 157.109375 C 172.773438 156.726562 172.824219 156.347656 172.914062 155.976562 C 173 155.605469 173.125 155.246094 173.285156 154.898438 C 173.445312 154.550781 173.636719 154.21875 173.859375 153.910156 C 174.082031 153.601562 174.335938 153.3125 174.617188 153.054688 C 174.898438 152.792969 175.199219 152.5625 175.527344 152.359375 C 175.851562 152.160156 176.195312 151.992188 176.554688 151.859375 C 176.914062 151.726562 177.28125 151.628906 177.660156 151.566406 C 178.039062 151.503906 178.417969 151.480469 178.800781 151.496094 C 179.183594 151.507812 179.5625 151.558594 179.933594 151.648438 Z M 179.933594 151.648438 " fill-opacity="1" fill-rule="nonzero"/><path fill="#ffffff" d="M 185.234375 156.53125 C 185.085938 157.777344 185.238281 158.980469 185.691406 160.148438 C 186.144531 161.3125 186.835938 162.308594 187.773438 163.132812 C 188.199219 163.507812 188.660156 163.832031 189.15625 164.101562 C 189.65625 164.375 190.175781 164.585938 190.722656 164.742188 C 191.265625 164.898438 191.824219 164.992188 192.390625 165.027344 C 192.957031 165.058594 193.519531 165.027344 194.078125 164.9375 C 194.636719 164.84375 195.179688 164.691406 195.707031 164.476562 C 196.230469 164.265625 196.726562 163.996094 197.191406 163.675781 C 197.660156 163.351562 198.082031 162.980469 198.464844 162.5625 C 198.847656 162.144531 199.183594 161.691406 199.464844 161.199219 C 199.746094 160.710938 199.96875 160.195312 200.136719 159.652344 C 200.304688 159.113281 200.410156 158.558594 200.453125 157.996094 C 200.496094 157.429688 200.476562 156.867188 200.394531 156.308594 C 200.3125 155.75 200.167969 155.203125 199.964844 154.675781 C 199.761719 154.148438 199.503906 153.648438 199.1875 153.175781 C 198.875 152.707031 198.511719 152.277344 198.101562 151.886719 C 197.6875 151.496094 197.242188 151.15625 196.753906 150.867188 C 196.265625 150.574219 195.753906 150.339844 195.214844 150.164062 C 194.675781 149.988281 194.125 149.871094 193.558594 149.820312 C 192.996094 149.765625 192.429688 149.773438 191.867188 149.84375 C 191.304688 149.914062 190.757812 150.046875 190.222656 150.238281 C 189.691406 150.433594 189.183594 150.679688 188.707031 150.988281 C 188.230469 151.292969 187.792969 151.644531 187.390625 152.046875 C 186.992188 152.449219 186.644531 152.890625 186.34375 153.371094 C 186.042969 153.851562 185.800781 154.359375 185.613281 154.894531 C 185.425781 155.425781 185.296875 155.976562 185.234375 156.539062 Z M 185.234375 156.53125 " fill-opacity="1" fill-rule="nonzero"/><path fill="#232323" d="M 196.726562 153.964844 C 196.964844 154.261719 197.171875 154.582031 197.347656 154.921875 C 197.523438 155.261719 197.664062 155.617188 197.769531 155.984375 C 197.875 156.351562 197.945312 156.726562 197.976562 157.105469 C 198.007812 157.488281 198.003906 157.867188 197.957031 158.246094 C 197.914062 158.628906 197.835938 159 197.71875 159.363281 C 197.601562 159.726562 197.449219 160.078125 197.265625 160.410156 C 197.078125 160.746094 196.863281 161.058594 196.613281 161.351562 C 196.367188 161.640625 196.09375 161.90625 195.792969 162.144531 C 195.492188 162.382812 195.171875 162.589844 194.832031 162.765625 C 194.492188 162.941406 194.136719 163.082031 193.769531 163.1875 C 193.398438 163.289062 193.023438 163.359375 192.644531 163.390625 C 192.261719 163.421875 191.878906 163.417969 191.5 163.375 C 191.117188 163.332031 190.746094 163.25 190.378906 163.132812 C 190.015625 163.015625 189.664062 162.867188 189.328125 162.679688 C 188.996094 162.496094 188.679688 162.28125 188.386719 162.03125 C 188.09375 161.785156 187.832031 161.511719 187.589844 161.214844 C 187.351562 160.914062 187.144531 160.59375 186.96875 160.253906 C 186.796875 159.914062 186.65625 159.5625 186.546875 159.191406 C 186.441406 158.824219 186.375 158.453125 186.34375 158.070312 C 186.3125 157.6875 186.316406 157.308594 186.359375 156.929688 C 186.402344 156.550781 186.484375 156.175781 186.601562 155.8125 C 186.71875 155.449219 186.867188 155.097656 187.054688 154.765625 C 187.242188 154.429688 187.457031 154.117188 187.703125 153.824219 C 187.953125 153.535156 188.226562 153.269531 188.527344 153.03125 C 188.824219 152.792969 189.144531 152.585938 189.488281 152.410156 C 189.828125 152.238281 190.183594 152.097656 190.550781 151.992188 C 190.917969 151.886719 191.292969 151.816406 191.675781 151.785156 C 192.058594 151.753906 192.4375 151.757812 192.820312 151.800781 C 193.199219 151.847656 193.574219 151.925781 193.9375 152.042969 C 194.304688 152.160156 194.652344 152.308594 194.988281 152.496094 C 195.324219 152.679688 195.636719 152.898438 195.929688 153.144531 C 196.222656 153.390625 196.488281 153.664062 196.726562 153.964844 Z M 196.726562 153.964844 " fill-opacity="1" fill-rule="nonzero"/><path fill="#232323" d="M 185.246094 167.296875 C 183.0625 167.296875 181.710938 165.613281 181.691406 165.589844 C 181.601562 165.472656 181.566406 165.339844 181.582031 165.195312 C 181.601562 165.046875 181.667969 164.929688 181.785156 164.839844 C 181.902344 164.75 182.03125 164.710938 182.179688 164.730469 C 182.324219 164.746094 182.445312 164.8125 182.535156 164.929688 C 182.625 165.042969 184.691406 167.5625 187.851562 165.238281 C 187.96875 165.152344 188.101562 165.117188 188.246094 165.140625 C 188.394531 165.164062 188.511719 165.234375 188.597656 165.351562 C 188.6875 165.46875 188.71875 165.601562 188.695312 165.75 C 188.675781 165.894531 188.605469 166.011719 188.484375 166.097656 C 187.273438 166.996094 186.183594 167.296875 185.246094 167.296875 Z M 185.246094 167.296875 " fill-opacity="1" fill-rule="nonzero"/><g clip-path="url(#9c72866812)"><path fill="#232323" d="M 190.878906 138.914062 C 191.007812 137.84375 191.226562 136.789062 191.535156 135.753906 C 191.835938 134.710938 192.207031 133.6875 192.648438 132.691406 C 192.871094 132.191406 193.109375 131.695312 193.363281 131.207031 C 193.484375 130.957031 193.628906 130.722656 193.765625 130.480469 C 193.898438 130.238281 194.042969 130 194.191406 129.765625 C 194.785156 128.8125 195.449219 127.910156 196.183594 127.054688 C 196.269531 126.945312 196.359375 126.839844 196.460938 126.734375 L 196.738281 126.414062 C 196.835938 126.308594 196.914062 126.195312 197.019531 126.089844 L 197.308594 125.773438 L 197.597656 125.449219 L 197.742188 125.289062 L 197.894531 125.136719 C 198.097656 124.929688 198.304688 124.726562 198.511719 124.523438 C 199.371094 123.71875 200.347656 123.101562 201.445312 122.667969 C 202.535156 122.238281 203.667969 121.980469 204.835938 121.902344 C 206.027344 121.808594 207.191406 121.949219 208.324219 122.324219 L 208.402344 122.746094 C 208.175781 122.957031 207.945312 123.144531 207.730469 123.316406 C 207.515625 123.492188 207.289062 123.648438 207.074219 123.824219 C 206.859375 124 206.648438 124.148438 206.433594 124.300781 C 206.382812 124.335938 206.328125 124.375 206.273438 124.410156 L 206.121094 124.53125 C 206.015625 124.609375 205.914062 124.6875 205.8125 124.757812 C 204.980469 125.34375 204.203125 125.917969 203.425781 126.441406 C 203.234375 126.582031 203.039062 126.714844 202.84375 126.839844 C 202.742188 126.898438 202.648438 126.96875 202.550781 127.03125 C 202.453125 127.09375 202.355469 127.15625 202.253906 127.21875 C 202.152344 127.28125 202.054688 127.335938 201.953125 127.394531 L 201.648438 127.570312 C 201.550781 127.628906 201.445312 127.683594 201.339844 127.746094 C 201.238281 127.808594 201.128906 127.851562 201.027344 127.910156 C 200.164062 128.351562 199.355469 128.867188 198.597656 129.464844 L 198.039062 129.9375 C 197.863281 130.097656 197.6875 130.269531 197.5 130.433594 C 197.3125 130.597656 197.148438 130.773438 196.972656 130.945312 L 196.707031 131.207031 L 196.453125 131.476562 C 196.277344 131.652344 196.101562 131.828125 195.945312 132.019531 C 195.789062 132.214844 195.605469 132.394531 195.453125 132.585938 C 195.125 132.964844 194.808594 133.359375 194.5 133.757812 C 193.246094 135.394531 192.175781 137.148438 191.300781 139.015625 Z M 190.878906 138.914062 " fill-opacity="1" fill-rule="nonzero"/></g><path fill="#232323" d="M 177.933594 140.167969 C 177.09375 138.285156 176.0625 136.511719 174.835938 134.851562 C 174.539062 134.445312 174.230469 134.046875 173.910156 133.660156 C 173.753906 133.464844 173.585938 133.277344 173.425781 133.085938 C 173.265625 132.898438 173.09375 132.714844 172.925781 132.53125 L 172.679688 132.257812 C 172.59375 132.167969 172.503906 132.082031 172.417969 131.992188 C 172.242188 131.816406 172.082031 131.640625 171.902344 131.464844 C 171.722656 131.289062 171.546875 131.125 171.371094 130.957031 L 170.820312 130.480469 C 170.070312 129.867188 169.269531 129.335938 168.417969 128.878906 C 168.316406 128.816406 168.210938 128.765625 168.109375 128.703125 L 167.800781 128.527344 L 167.503906 128.351562 C 167.402344 128.292969 167.304688 128.234375 167.203125 128.175781 C 167.105469 128.121094 167.007812 128.050781 166.914062 127.984375 C 166.820312 127.917969 166.722656 127.847656 166.625 127.785156 C 166.429688 127.65625 166.238281 127.519531 166.050781 127.378906 C 165.285156 126.828125 164.515625 126.242188 163.695312 125.640625 C 163.59375 125.566406 163.496094 125.488281 163.394531 125.410156 L 163.238281 125.285156 C 163.1875 125.25 163.136719 125.207031 163.082031 125.171875 C 162.875 125.015625 162.664062 124.851562 162.453125 124.683594 C 162.242188 124.511719 162.019531 124.335938 161.808594 124.160156 C 161.597656 123.984375 161.371094 123.792969 161.152344 123.574219 L 161.238281 123.15625 C 162.378906 122.800781 163.542969 122.683594 164.730469 122.804688 C 165.898438 122.90625 167.023438 123.183594 168.105469 123.632812 C 169.191406 124.085938 170.152344 124.714844 170.996094 125.53125 C 171.199219 125.738281 171.402344 125.945312 171.601562 126.15625 L 171.746094 126.3125 L 171.890625 126.476562 L 172.171875 126.800781 L 172.457031 127.125 C 172.550781 127.234375 172.632812 127.347656 172.730469 127.457031 L 173.003906 127.785156 C 173.09375 127.890625 173.1875 127.996094 173.273438 128.109375 C 173.988281 128.976562 174.636719 129.890625 175.210938 130.855469 C 175.351562 131.09375 175.492188 131.332031 175.621094 131.578125 C 175.75 131.824219 175.890625 132.0625 176.007812 132.3125 C 176.253906 132.808594 176.480469 133.304688 176.695312 133.8125 C 177.117188 134.816406 177.46875 135.847656 177.75 136.898438 C 178.039062 137.941406 178.238281 139 178.34375 140.074219 Z M 177.933594 140.167969 " fill-opacity="1" fill-rule="nonzero"/><path fill="#3babcd" d="M 155.109375 176.046875 C 158.550781 174.878906 170.515625 170.820312 173.886719 169.621094 C 173.972656 169.589844 174.0625 169.578125 174.15625 169.585938 C 174.25 169.59375 174.335938 169.621094 174.414062 169.667969 C 174.496094 169.714844 174.5625 169.777344 174.617188 169.851562 C 174.667969 169.929688 174.703125 170.015625 174.71875 170.105469 L 174.769531 170.417969 L 178.371094 169.804688 C 178.515625 169.777344 178.660156 169.78125 178.800781 169.8125 C 178.945312 169.84375 179.078125 169.902344 179.199219 169.984375 C 179.316406 170.0625 179.417969 170.164062 179.5 170.285156 C 179.582031 170.40625 179.636719 170.539062 179.667969 170.679688 C 180.410156 174.207031 183.34375 186.128906 185.535156 202.3125 C 185.550781 202.429688 185.550781 202.542969 185.535156 202.65625 C 185.503906 202.875 185.425781 203.082031 185.304688 203.269531 C 185.183594 203.457031 185.03125 203.613281 184.847656 203.734375 C 184.660156 203.859375 184.457031 203.9375 184.238281 203.976562 C 184.015625 204.011719 183.796875 204.003906 183.582031 203.949219 L 183.316406 203.886719 L 181.558594 205.351562 L 181.769531 206.183594 C 181.820312 206.378906 181.796875 206.5625 181.695312 206.742188 C 181.597656 206.917969 181.453125 207.035156 181.257812 207.09375 C 178.671875 207.894531 169.25 210.46875 161.28125 208.308594 C 160.722656 208.152344 160.359375 207.796875 160.191406 207.242188 C 159.246094 204.101562 155.875 192.222656 154.277344 177.351562 C 154.246094 177.066406 154.304688 176.796875 154.460938 176.554688 C 154.617188 176.308594 154.832031 176.140625 155.109375 176.046875 Z M 155.109375 176.046875 " fill-opacity="1" fill-rule="nonzero"/><path fill="#ffffff" d="M 181.769531 206.183594 C 181.816406 206.375 181.796875 206.558594 181.699219 206.734375 C 181.605469 206.90625 181.464844 207.027344 181.277344 207.089844 L 171.117188 180.542969 L 174.8125 171.710938 L 177.328125 171.152344 C 177.59375 171.113281 177.835938 171.175781 178.054688 171.332031 C 178.269531 171.488281 178.402344 171.699219 178.449219 171.960938 C 179.195312 176.164062 182.21875 193.117188 182.921875 196.3125 C 183.730469 199.96875 184.558594 203.660156 183.3125 203.886719 L 181.554688 205.351562 Z M 181.769531 206.183594 " fill-opacity="1" fill-rule="nonzero"/><path fill="#3babcd" d="M 160.191406 207.246094 C 159.246094 204.101562 155.875 192.222656 154.277344 177.351562 C 154.246094 177.066406 154.308594 176.800781 154.464844 176.554688 C 154.617188 176.3125 154.832031 176.144531 155.109375 176.050781 C 158.554688 174.878906 170.519531 170.820312 173.886719 169.628906 C 174.050781 169.570312 174.210938 169.578125 174.367188 169.652344 C 174.523438 169.726562 174.632812 169.847656 174.691406 170.011719 L 174.691406 170.105469 C 174.691406 170.105469 174.714844 170.21875 174.757812 170.429688 C 175.203125 172.585938 177.707031 184.800781 178.230469 188.433594 C 178.738281 191.921875 180.847656 202.28125 181.578125 205.335938 L 181.558594 205.351562 L 181.769531 206.183594 C 181.820312 206.378906 181.796875 206.566406 181.695312 206.742188 C 181.597656 206.917969 181.453125 207.035156 181.257812 207.097656 C 178.671875 207.894531 169.25 210.472656 161.28125 208.308594 C 160.722656 208.15625 160.359375 207.800781 160.191406 207.246094 Z M 160.191406 207.246094 " fill-opacity="1" fill-rule="nonzero"/><path fill="#232323" d="M 157.066406 191.222656 C 157.066406 191.222656 161.371094 190.125 164.039062 192.84375 C 166.707031 195.5625 159.859375 201.660156 156.160156 198.878906 C 153.613281 196.972656 153.816406 191.851562 157.066406 191.222656 Z M 157.066406 191.222656 " fill-opacity="1" fill-rule="nonzero"/><path fill="#ffffff" d="M 159.097656 180.941406 C 159.21875 181.839844 159.40625 183.121094 159.628906 184.382812 C 159.664062 184.578125 159.738281 184.765625 159.847656 184.933594 C 159.957031 185.101562 160.097656 185.242188 160.265625 185.355469 C 160.433594 185.46875 160.617188 185.542969 160.816406 185.582031 C 161.011719 185.621094 161.210938 185.617188 161.410156 185.578125 L 168.847656 183.996094 L 171.328125 183.46875 C 171.519531 183.429688 171.695312 183.355469 171.855469 183.246094 C 172.015625 183.136719 172.152344 183 172.257812 182.835938 C 172.367188 182.675781 172.441406 182.5 172.480469 182.308594 C 172.519531 182.117188 172.519531 181.925781 172.484375 181.734375 L 171.660156 177.394531 C 171.621094 177.183594 171.539062 176.988281 171.417969 176.816406 C 171.296875 176.640625 171.140625 176.496094 170.957031 176.386719 C 170.773438 176.277344 170.574219 176.210938 170.363281 176.1875 C 170.148438 176.164062 169.941406 176.183594 169.738281 176.25 L 160.125 179.320312 C 159.78125 179.433594 159.511719 179.640625 159.316406 179.945312 C 159.125 180.25 159.050781 180.582031 159.097656 180.941406 Z M 159.097656 180.941406 " fill-opacity="1" fill-rule="nonzero"/></svg>