<svg xmlns="http://www.w3.org/2000/svg" xmlns:xlink="http://www.w3.org/1999/xlink" width="500" zoomAndPan="magnify" viewBox="0 0 375 374.999991" height="500" preserveAspectRatio="xMidYMid meet" version="1.0"><path fill="#ffffff" d="M 191.257812 174.167969 C 191.257812 174.167969 238.015625 159.738281 257.085938 188.195312 C 276.160156 216.652344 249.890625 245.050781 224.171875 226.734375 C 192.882812 204.460938 191.257812 174.167969 191.257812 174.167969 Z M 191.257812 174.167969 " fill-opacity="1" fill-rule="nonzero"/><path fill="#232323" d="M 240.765625 233.472656 C 235.035156 233.472656 229.136719 231.421875 223.625 227.496094 C 216.542969 222.5 210.359375 216.5625 205.078125 209.6875 C 201.015625 204.375 197.695312 198.636719 195.113281 192.46875 C 190.789062 182.082031 190.339844 174.542969 190.324219 174.226562 L 190.285156 173.5 L 190.980469 173.285156 C 199.5 170.910156 208.179688 169.679688 217.019531 169.59375 C 225.3125 169.566406 232.734375 170.757812 239.089844 173.144531 C 247.089844 176.140625 253.40625 181.039062 257.855469 187.695312 C 262.660156 194.863281 264.953125 202.53125 264.484375 209.871094 C 264.074219 216.496094 261.367188 222.574219 256.867188 226.953125 C 254.859375 228.902344 252.574219 230.4375 250.011719 231.558594 C 247.449219 232.679688 244.769531 233.308594 241.972656 233.457031 C 241.578125 233.457031 241.175781 233.472656 240.765625 233.472656 Z M 192.265625 174.855469 C 192.492188 176.980469 193.421875 183.527344 196.882812 191.816406 C 200.777344 201.128906 208.765625 214.617188 224.71875 225.972656 C 235.402344 233.578125 247.515625 233.429688 255.582031 225.597656 C 263.257812 218.140625 266.464844 203.84375 256.324219 188.714844 C 246.714844 174.367188 229.679688 171.398438 217.074219 171.441406 C 208.660156 171.535156 200.390625 172.671875 192.265625 174.855469 Z M 192.265625 174.855469 " fill-opacity="1" fill-rule="nonzero"/><path fill="#232323" d="M 237.347656 193.125 C 214.640625 192.203125 205.277344 182.4375 201.417969 174.394531 L 203.105469 173.589844 C 206.726562 181.171875 215.644531 190.390625 237.425781 191.28125 Z M 237.347656 193.125 " fill-opacity="1" fill-rule="nonzero"/><path fill="#232323" d="M 241.9375 198.613281 C 238.304688 198.488281 236.453125 196.019531 236.558594 192.789062 C 236.667969 189.554688 238.699219 186.78125 242.332031 186.902344 C 245.964844 187.023438 252.003906 189.925781 251.890625 193.15625 C 251.78125 196.386719 245.570312 198.734375 241.9375 198.613281 Z M 241.9375 198.613281 " fill-opacity="1" fill-rule="nonzero"/><path fill="#ffffff" d="M 184.046875 174.167969 C 184.046875 174.167969 137.289062 159.738281 118.21875 188.195312 C 99.148438 216.652344 125.414062 245.050781 151.132812 226.734375 C 182.421875 204.460938 184.046875 174.167969 184.046875 174.167969 Z M 184.046875 174.167969 " fill-opacity="1" fill-rule="nonzero"/><path fill="#232323" d="M 134.539062 233.472656 C 134.132812 233.472656 133.726562 233.472656 133.308594 233.441406 C 130.519531 233.292969 127.84375 232.664062 125.285156 231.546875 C 122.726562 230.429688 120.445312 228.898438 118.441406 226.953125 C 113.941406 222.574219 111.234375 216.496094 110.808594 209.851562 C 110.339844 202.515625 112.632812 194.84375 117.4375 187.675781 C 121.898438 181.019531 128.203125 176.125 136.203125 173.125 C 142.558594 170.738281 149.996094 169.542969 158.273438 169.578125 C 167.113281 169.664062 175.792969 170.890625 184.3125 173.265625 L 185.007812 173.480469 L 184.96875 174.207031 C 184.953125 174.515625 184.507812 182.0625 180.179688 192.449219 C 177.597656 198.617188 174.277344 204.355469 170.214844 209.667969 C 164.933594 216.542969 158.753906 222.480469 151.667969 227.476562 C 146.171875 231.417969 140.28125 233.472656 134.539062 233.472656 Z M 157.996094 171.441406 C 145.421875 171.441406 128.539062 174.460938 118.992188 188.714844 C 108.839844 203.84375 112.058594 218.140625 119.730469 225.597656 C 127.796875 233.429688 139.910156 233.589844 150.597656 225.972656 C 166.550781 214.617188 174.539062 201.121094 178.425781 191.816406 C 181.886719 183.527344 182.816406 176.980469 183.039062 174.855469 C 174.910156 172.671875 166.636719 171.535156 158.21875 171.441406 Z M 157.996094 171.441406 " fill-opacity="1" fill-rule="nonzero"/><path fill="#232323" d="M 219.082031 235.84375 C 218.496094 236.824219 217.859375 237.769531 217.171875 238.683594 C 202.753906 257.800781 171.984375 251.828125 159.1875 238.914062 C 157.144531 236.929688 155.570312 234.628906 154.457031 232.011719 C 153.933594 230.703125 153.488281 229.371094 153.109375 228.011719 C 152.21875 224.753906 151.707031 221.441406 151.574219 218.066406 C 151.457031 215.046875 151.574219 212.035156 151.929688 209.035156 C 152.367188 205.371094 153.0625 201.757812 154.023438 198.195312 C 154.761719 195.398438 155.628906 192.683594 156.566406 190.089844 C 157.917969 186.351562 159.457031 182.6875 161.179688 179.101562 C 162.574219 176.179688 163.925781 173.632812 165.070312 171.589844 C 167.019531 168.121094 168.378906 166.085938 168.378906 166.085938 L 197.636719 167.699219 C 201.109375 171.785156 204.332031 176.0625 207.296875 180.53125 C 208.902344 182.929688 210.574219 185.578125 212.203125 188.410156 C 213.566406 190.777344 214.894531 193.265625 216.128906 195.84375 C 217.363281 198.421875 218.460938 200.984375 219.425781 203.640625 C 220.464844 206.460938 221.296875 209.339844 221.921875 212.28125 C 222.542969 215.179688 222.867188 218.109375 222.890625 221.074219 C 222.898438 223.066406 222.722656 225.042969 222.367188 227 C 221.804688 230.144531 220.707031 233.09375 219.082031 235.84375 Z M 219.082031 235.84375 " fill-opacity="1" fill-rule="nonzero"/><path fill="#ffcd3f" d="M 219.429688 203.652344 C 215.710938 204.800781 211.921875 205.652344 208.066406 206.199219 C 198.632812 207.546875 188.460938 207.226562 177.839844 205.246094 C 172.65625 204.265625 167.554688 202.960938 162.539062 201.324219 C 159.277344 200.261719 156.410156 199.171875 154.03125 198.210938 C 154.773438 195.410156 155.640625 192.695312 156.574219 190.101562 C 164.019531 193.195312 171.703125 195.488281 179.625 196.980469 C 193.074219 199.464844 205.289062 199.078125 216.132812 195.855469 C 217.34375 198.386719 218.464844 201 219.429688 203.652344 Z M 219.429688 203.652344 " fill-opacity="1" fill-rule="nonzero"/><path fill="#ffcd3f" d="M 222.894531 221.085938 C 217.21875 223.457031 211.339844 225.066406 205.25 225.917969 C 195.8125 227.257812 185.648438 226.953125 175.039062 224.964844 C 169.855469 223.988281 164.753906 222.679688 159.738281 221.042969 C 156.640625 220.03125 153.894531 219.007812 151.597656 218.078125 C 151.480469 215.058594 151.601562 212.050781 151.953125 209.046875 C 159.957031 212.535156 168.246094 215.085938 176.824219 216.703125 C 193.960938 219.863281 209.085938 218.375 221.9375 212.292969 C 222.558594 215.191406 222.875 218.125 222.894531 221.085938 Z M 222.894531 221.085938 " fill-opacity="1" fill-rule="nonzero"/><path fill="#ffcd3f" d="M 219.082031 235.84375 C 218.496094 236.824219 217.859375 237.769531 217.171875 238.683594 C 212.914062 240.269531 208.546875 241.449219 204.066406 242.214844 C 194.679688 243.847656 184.503906 243.828125 173.824219 242.160156 C 168.878906 241.378906 164 240.296875 159.1875 238.914062 C 157.144531 236.929688 155.570312 234.628906 154.457031 232.011719 C 153.933594 230.703125 153.488281 229.371094 153.109375 228.011719 C 160.335938 230.695312 167.753906 232.636719 175.367188 233.835938 C 193.515625 236.632812 209.289062 234.332031 222.371094 227 C 221.804688 230.144531 220.710938 233.09375 219.082031 235.84375 Z M 219.082031 235.84375 " fill-opacity="1" fill-rule="nonzero"/><path fill="#232323" d="M 197.914062 245.910156 C 197.914062 245.910156 203.625 264.167969 211.976562 271.28125 C 212.046875 271.324219 212.089844 271.390625 212.109375 271.472656 C 212.128906 271.558594 212.113281 271.632812 212.066406 271.707031 C 212.019531 271.777344 211.957031 271.820312 211.871094 271.839844 C 211.789062 271.855469 211.710938 271.84375 211.640625 271.796875 C 206.832031 269.589844 195.683594 263.128906 185.878906 247.464844 Z M 197.914062 245.910156 " fill-opacity="1" fill-rule="nonzero"/><path fill="#ffcd3f" d="M 220.925781 149.785156 C 220.925781 170.984375 204.671875 180.679688 183.464844 180.679688 C 162.257812 180.679688 144.132812 170.984375 144.132812 149.785156 C 144.144531 148.535156 144.214844 147.289062 144.347656 146.046875 C 144.480469 144.804688 144.675781 143.570312 144.929688 142.34375 C 145.179688 141.121094 145.492188 139.914062 145.867188 138.71875 C 146.238281 137.527344 146.667969 136.351562 147.152344 135.203125 C 147.640625 134.050781 148.179688 132.925781 148.777344 131.824219 C 149.371094 130.726562 150.019531 129.660156 150.722656 128.625 C 151.421875 127.589844 152.171875 126.589844 152.96875 125.628906 C 153.769531 124.664062 154.609375 123.746094 155.5 122.863281 C 156.386719 121.984375 157.316406 121.148438 158.285156 120.359375 C 159.253906 119.570312 160.261719 118.832031 161.304688 118.140625 C 162.34375 117.449219 163.417969 116.8125 164.523438 116.226562 C 165.628906 115.636719 166.757812 115.109375 167.914062 114.632812 C 169.070312 114.15625 170.246094 113.738281 171.445312 113.375 C 172.640625 113.015625 173.855469 112.714844 175.082031 112.472656 C 176.308594 112.230469 177.542969 112.046875 178.785156 111.925781 C 180.03125 111.804688 181.277344 111.742188 182.53125 111.742188 C 183.78125 111.742188 185.027344 111.804688 186.273438 111.925781 C 187.515625 112.046875 188.753906 112.230469 189.980469 112.472656 C 191.207031 112.714844 192.417969 113.015625 193.613281 113.375 C 194.8125 113.738281 195.988281 114.15625 197.144531 114.632812 C 198.300781 115.109375 199.429688 115.636719 200.535156 116.226562 C 201.640625 116.8125 202.714844 117.449219 203.753906 118.140625 C 204.796875 118.832031 205.804688 119.570312 206.773438 120.359375 C 207.742188 121.148438 208.671875 121.984375 209.558594 122.863281 C 210.449219 123.746094 211.292969 124.664062 212.089844 125.628906 C 212.886719 126.589844 213.636719 127.589844 214.335938 128.625 C 215.039062 129.660156 215.6875 130.726562 216.28125 131.824219 C 216.878906 132.925781 217.421875 134.050781 217.90625 135.203125 C 218.390625 136.351562 218.820312 137.527344 219.191406 138.71875 C 219.566406 139.914062 219.878906 141.121094 220.132812 142.34375 C 220.382812 143.570312 220.578125 144.804688 220.710938 146.046875 C 220.84375 147.289062 220.914062 148.535156 220.925781 149.785156 Z M 220.925781 149.785156 " fill-opacity="1" fill-rule="nonzero"/><path fill="#232323" d="M 163.460938 126.800781 C 163.519531 127.3125 163.757812 127.722656 164.167969 128.03125 C 164.566406 128.332031 165.011719 128.453125 165.507812 128.390625 L 171.679688 127.601562 C 171.921875 127.570312 172.148438 127.492188 172.355469 127.371094 C 172.566406 127.25 172.746094 127.09375 172.894531 126.902344 C 173.042969 126.710938 173.148438 126.496094 173.210938 126.265625 C 173.277344 126.03125 173.292969 125.792969 173.265625 125.554688 C 173.179688 124.910156 172.847656 124.445312 172.273438 124.152344 C 171.9375 123.980469 171.585938 123.921875 171.21875 123.96875 L 165.039062 124.761719 C 164.800781 124.792969 164.574219 124.867188 164.363281 124.988281 C 164.152344 125.109375 163.972656 125.265625 163.824219 125.457031 C 163.675781 125.648438 163.570312 125.863281 163.507812 126.097656 C 163.445312 126.332031 163.429688 126.566406 163.460938 126.808594 Z M 163.460938 126.800781 " fill-opacity="1" fill-rule="nonzero"/><path fill="#232323" d="M 203.785156 127.710938 C 203.730469 127.945312 203.628906 128.160156 203.484375 128.355469 C 203.339844 128.550781 203.164062 128.714844 202.957031 128.839844 C 202.75 128.964844 202.527344 129.046875 202.285156 129.082031 C 202.046875 129.117188 201.808594 129.105469 201.570312 129.046875 L 195.527344 127.554688 C 195.292969 127.496094 195.078125 127.394531 194.882812 127.25 C 194.691406 127.105469 194.53125 126.929688 194.40625 126.722656 C 194.28125 126.515625 194.199219 126.292969 194.160156 126.054688 C 194.125 125.8125 194.132812 125.578125 194.191406 125.339844 C 194.246094 125.105469 194.347656 124.890625 194.492188 124.691406 C 194.636719 124.496094 194.8125 124.335938 195.019531 124.210938 C 195.226562 124.085938 195.453125 124.003906 195.691406 123.96875 C 195.933594 123.933594 196.171875 123.945312 196.40625 124.003906 L 202.449219 125.496094 C 202.683594 125.554688 202.898438 125.652344 203.097656 125.796875 C 203.292969 125.941406 203.453125 126.117188 203.578125 126.324219 C 203.703125 126.53125 203.785156 126.757812 203.820312 126.996094 C 203.855469 127.234375 203.84375 127.472656 203.785156 127.710938 Z M 203.785156 127.710938 " fill-opacity="1" fill-rule="nonzero"/><path fill="#ffffff" d="M 184.269531 148.792969 C 184.269531 149.667969 184.183594 150.539062 184.011719 151.398438 C 183.839844 152.257812 183.585938 153.09375 183.25 153.90625 C 182.914062 154.714844 182.503906 155.484375 182.015625 156.214844 C 181.527344 156.945312 180.976562 157.621094 180.355469 158.238281 C 179.734375 158.859375 179.058594 159.414062 178.328125 159.902344 C 177.597656 160.390625 176.828125 160.800781 176.019531 161.136719 C 175.207031 161.472656 174.371094 161.726562 173.511719 161.898438 C 172.648438 162.066406 171.78125 162.152344 170.902344 162.152344 C 170.027344 162.152344 169.15625 162.066406 168.296875 161.898438 C 167.433594 161.726562 166.597656 161.472656 165.789062 161.136719 C 164.976562 160.800781 164.207031 160.390625 163.476562 159.902344 C 162.746094 159.414062 162.074219 158.859375 161.453125 158.238281 C 160.832031 157.621094 160.277344 156.945312 159.789062 156.214844 C 159.300781 155.484375 158.890625 154.714844 158.554688 153.90625 C 158.21875 153.09375 157.964844 152.257812 157.792969 151.398438 C 157.625 150.539062 157.539062 149.667969 157.539062 148.792969 C 157.539062 147.914062 157.625 147.046875 157.792969 146.183594 C 157.964844 145.324219 158.21875 144.488281 158.554688 143.679688 C 158.890625 142.867188 159.300781 142.097656 159.789062 141.367188 C 160.277344 140.640625 160.832031 139.964844 161.453125 139.34375 C 162.074219 138.722656 162.746094 138.171875 163.476562 137.683594 C 164.207031 137.195312 164.976562 136.785156 165.789062 136.449219 C 166.597656 136.113281 167.433594 135.859375 168.296875 135.6875 C 169.15625 135.515625 170.027344 135.429688 170.902344 135.429688 C 171.78125 135.425781 172.652344 135.507812 173.515625 135.675781 C 174.378906 135.84375 175.214844 136.09375 176.03125 136.429688 C 176.84375 136.761719 177.613281 137.171875 178.347656 137.660156 C 179.078125 138.148438 179.753906 138.703125 180.375 139.324219 C 180.996094 139.945312 181.550781 140.621094 182.039062 141.351562 C 182.527344 142.082031 182.9375 142.855469 183.273438 143.667969 C 183.605469 144.480469 183.855469 145.316406 184.023438 146.179688 C 184.191406 147.042969 184.273438 147.914062 184.269531 148.792969 Z M 184.269531 148.792969 " fill-opacity="1" fill-rule="nonzero"/><path fill="#232323" d="M 174.367188 139.179688 C 175.019531 139.335938 175.648438 139.550781 176.257812 139.828125 C 176.867188 140.105469 177.445312 140.441406 177.988281 140.832031 C 178.53125 141.222656 179.03125 141.664062 179.488281 142.15625 C 179.945312 142.644531 180.351562 143.175781 180.703125 143.746094 C 181.054688 144.316406 181.347656 144.914062 181.582031 145.539062 C 181.816406 146.167969 181.988281 146.8125 182.09375 147.472656 C 182.203125 148.132812 182.242188 148.800781 182.21875 149.46875 C 182.195312 150.136719 182.109375 150.800781 181.953125 151.449219 C 181.800781 152.101562 181.582031 152.734375 181.304688 153.34375 C 181.027344 153.953125 180.691406 154.527344 180.300781 155.070312 C 179.910156 155.613281 179.46875 156.113281 178.976562 156.570312 C 178.488281 157.027344 177.957031 157.433594 177.386719 157.785156 C 176.816406 158.136719 176.21875 158.429688 175.589844 158.664062 C 174.964844 158.898438 174.320312 159.070312 173.65625 159.175781 C 172.996094 159.285156 172.332031 159.324219 171.660156 159.300781 C 170.992188 159.277344 170.332031 159.1875 169.679688 159.035156 C 169.027344 158.882812 168.398438 158.664062 167.785156 158.386719 C 167.175781 158.109375 166.601562 157.773438 166.058594 157.382812 C 165.515625 156.992188 165.015625 156.550781 164.558594 156.058594 C 164.101562 155.570312 163.695312 155.039062 163.34375 154.46875 C 162.992188 153.902344 162.699219 153.300781 162.464844 152.675781 C 162.230469 152.046875 162.058594 151.402344 161.953125 150.742188 C 161.84375 150.082031 161.800781 149.414062 161.824219 148.746094 C 161.851562 148.078125 161.9375 147.417969 162.09375 146.765625 C 162.246094 146.113281 162.460938 145.480469 162.742188 144.871094 C 163.019531 144.265625 163.355469 143.6875 163.746094 143.144531 C 164.136719 142.601562 164.578125 142.101562 165.066406 141.644531 C 165.558594 141.1875 166.089844 140.785156 166.660156 140.429688 C 167.226562 140.078125 167.828125 139.785156 168.453125 139.550781 C 169.082031 139.316406 169.726562 139.148438 170.386719 139.039062 C 171.050781 138.933594 171.714844 138.890625 172.382812 138.914062 C 173.054688 138.9375 173.714844 139.027344 174.367188 139.179688 Z M 174.367188 139.179688 " fill-opacity="1" fill-rule="nonzero"/><path fill="#ffffff" d="M 183.628906 147.738281 C 183.375 149.914062 183.640625 152.027344 184.433594 154.070312 C 185.21875 156.109375 186.429688 157.851562 188.066406 159.300781 C 188.4375 159.625 188.828125 159.933594 189.230469 160.214844 C 189.636719 160.5 190.054688 160.761719 190.488281 160.996094 C 190.921875 161.234375 191.367188 161.445312 191.824219 161.636719 C 192.28125 161.824219 192.75 161.984375 193.222656 162.121094 C 193.699219 162.257812 194.179688 162.367188 194.667969 162.449219 C 195.15625 162.53125 195.644531 162.589844 196.136719 162.617188 C 196.632812 162.644531 197.125 162.644531 197.617188 162.621094 C 198.113281 162.59375 198.601562 162.539062 199.089844 162.460938 C 199.578125 162.378906 200.058594 162.269531 200.535156 162.136719 C 201.011719 162.003906 201.476562 161.84375 201.9375 161.65625 C 202.394531 161.46875 202.839844 161.261719 203.273438 161.023438 C 203.710938 160.789062 204.128906 160.53125 204.535156 160.25 C 204.941406 159.964844 205.332031 159.664062 205.703125 159.335938 C 206.074219 159.011719 206.429688 158.667969 206.761719 158.304688 C 207.097656 157.9375 207.410156 157.558594 207.699219 157.15625 C 207.992188 156.757812 208.261719 156.34375 208.507812 155.917969 C 208.75 155.488281 208.972656 155.046875 209.167969 154.59375 C 209.367188 154.140625 209.535156 153.675781 209.683594 153.203125 C 209.828125 152.730469 209.945312 152.253906 210.039062 151.765625 C 210.128906 151.28125 210.195312 150.792969 210.234375 150.300781 C 210.269531 149.808594 210.28125 149.3125 210.265625 148.820312 C 210.246094 148.328125 210.203125 147.835938 210.132812 147.347656 C 210.0625 146.855469 209.960938 146.375 209.835938 145.894531 C 209.710938 145.417969 209.5625 144.949219 209.382812 144.488281 C 209.207031 144.027344 209.003906 143.574219 208.777344 143.136719 C 208.550781 142.699219 208.300781 142.273438 208.023438 141.863281 C 207.75 141.449219 207.453125 141.054688 207.136719 140.679688 C 206.816406 140.300781 206.480469 139.941406 206.121094 139.597656 C 205.765625 139.257812 205.386719 138.9375 204.996094 138.640625 C 204.601562 138.339844 204.191406 138.066406 203.769531 137.8125 C 203.34375 137.558594 202.90625 137.328125 202.457031 137.121094 C 202.007812 136.917969 201.546875 136.738281 201.078125 136.582031 C 200.609375 136.429688 200.132812 136.300781 199.648438 136.199219 C 199.164062 136.097656 198.675781 136.023438 198.183594 135.976562 C 197.691406 135.929688 197.199219 135.910156 196.703125 135.917969 C 196.210938 135.925781 195.71875 135.960938 195.226562 136.023438 C 194.738281 136.082031 194.253906 136.171875 193.773438 136.289062 C 193.292969 136.40625 192.820312 136.546875 192.355469 136.714844 C 191.890625 136.882812 191.433594 137.078125 190.992188 137.296875 C 190.546875 137.515625 190.117188 137.757812 189.703125 138.023438 C 189.285156 138.289062 188.886719 138.578125 188.5 138.890625 C 188.117188 139.199219 187.75 139.53125 187.402344 139.882812 C 187.054688 140.234375 186.730469 140.601562 186.421875 140.992188 C 186.117188 141.378906 185.832031 141.78125 185.570312 142.199219 C 185.308594 142.621094 185.070312 143.050781 184.855469 143.496094 C 184.640625 143.945312 184.453125 144.398438 184.289062 144.867188 C 184.128906 145.332031 183.992188 145.804688 183.878906 146.289062 C 183.769531 146.769531 183.6875 147.253906 183.628906 147.746094 Z M 183.628906 147.738281 " fill-opacity="1" fill-rule="nonzero"/><path fill="#232323" d="M 203.722656 143.238281 C 204.140625 143.761719 204.5 144.320312 204.808594 144.917969 C 205.113281 145.511719 205.359375 146.132812 205.546875 146.777344 C 205.730469 147.417969 205.851562 148.074219 205.90625 148.742188 C 205.960938 149.410156 205.949219 150.078125 205.875 150.742188 C 205.796875 151.40625 205.660156 152.058594 205.453125 152.695312 C 205.25 153.335938 204.984375 153.945312 204.660156 154.53125 C 204.335938 155.117188 203.957031 155.667969 203.523438 156.179688 C 203.089844 156.6875 202.613281 157.152344 202.089844 157.570312 C 201.5625 157.988281 201.003906 158.347656 200.410156 158.65625 C 199.8125 158.960938 199.191406 159.207031 198.550781 159.390625 C 197.90625 159.578125 197.25 159.695312 196.582031 159.753906 C 195.914062 159.808594 195.246094 159.796875 194.582031 159.722656 C 193.914062 159.644531 193.265625 159.507812 192.625 159.300781 C 191.988281 159.097656 191.375 158.832031 190.789062 158.507812 C 190.203125 158.183594 189.65625 157.804688 189.144531 157.371094 C 188.632812 156.941406 188.167969 156.460938 187.75 155.9375 C 187.335938 155.414062 186.972656 154.851562 186.664062 154.257812 C 186.359375 153.664062 186.113281 153.042969 185.929688 152.398438 C 185.742188 151.753906 185.625 151.097656 185.566406 150.433594 C 185.511719 149.765625 185.523438 149.097656 185.597656 148.433594 C 185.675781 147.765625 185.816406 147.117188 186.019531 146.476562 C 186.222656 145.839844 186.488281 145.226562 186.8125 144.640625 C 187.136719 144.054688 187.515625 143.507812 187.949219 142.996094 C 188.382812 142.484375 188.859375 142.023438 189.386719 141.605469 C 189.910156 141.1875 190.46875 140.824219 191.066406 140.519531 C 191.660156 140.210938 192.28125 139.96875 192.925781 139.78125 C 193.566406 139.597656 194.222656 139.476562 194.890625 139.421875 C 195.558594 139.367188 196.226562 139.375 196.890625 139.453125 C 197.558594 139.527344 198.210938 139.667969 198.847656 139.871094 C 199.484375 140.078125 200.097656 140.339844 200.683594 140.667969 C 201.269531 140.992188 201.816406 141.371094 202.328125 141.800781 C 202.839844 142.234375 203.304688 142.714844 203.722656 143.238281 Z M 203.722656 143.238281 " fill-opacity="1" fill-rule="nonzero"/><path fill="#232323" d="M 183.652344 166.59375 C 179.835938 166.59375 177.472656 163.644531 177.441406 163.601562 C 177.28125 163.398438 177.214844 163.167969 177.246094 162.914062 C 177.277344 162.65625 177.398438 162.449219 177.601562 162.289062 C 177.804688 162.128906 178.035156 162.066406 178.289062 162.097656 C 178.546875 162.128906 178.753906 162.246094 178.914062 162.449219 C 179.066406 162.644531 182.679688 167.0625 188.203125 162.988281 C 188.410156 162.835938 188.644531 162.777344 188.898438 162.816406 C 189.152344 162.855469 189.359375 162.976562 189.511719 163.1875 C 189.664062 163.394531 189.722656 163.625 189.683594 163.882812 C 189.644531 164.136719 189.523438 164.339844 189.3125 164.492188 C 187.199219 166.066406 185.289062 166.59375 183.652344 166.59375 Z M 183.652344 166.59375 " fill-opacity="1" fill-rule="nonzero"/><path fill="#232323" d="M 193.496094 116.878906 C 193.722656 115 194.105469 113.15625 194.644531 111.34375 C 195.171875 109.511719 195.824219 107.71875 196.59375 105.972656 C 196.980469 105.097656 197.398438 104.230469 197.84375 103.371094 C 198.054688 102.9375 198.308594 102.523438 198.542969 102.101562 C 198.777344 101.675781 199.03125 101.261719 199.285156 100.847656 C 200.328125 99.179688 201.488281 97.597656 202.769531 96.101562 C 202.921875 95.910156 203.078125 95.726562 203.253906 95.542969 L 203.742188 94.980469 C 203.910156 94.792969 204.050781 94.597656 204.234375 94.414062 L 204.738281 93.855469 L 205.246094 93.292969 L 205.496094 93.011719 L 205.761719 92.738281 C 206.117188 92.378906 206.480469 92.023438 206.839844 91.667969 C 208.34375 90.257812 210.054688 89.175781 211.96875 88.417969 C 213.875 87.664062 215.851562 87.214844 217.898438 87.078125 C 219.980469 86.910156 222.011719 87.15625 223.992188 87.820312 L 224.128906 88.554688 C 223.734375 88.925781 223.335938 89.253906 222.957031 89.554688 C 222.578125 89.859375 222.183594 90.132812 221.808594 90.441406 C 221.4375 90.75 221.0625 91.015625 220.691406 91.277344 C 220.597656 91.339844 220.503906 91.410156 220.414062 91.472656 L 220.144531 91.679688 C 219.960938 91.816406 219.78125 91.957031 219.601562 92.082031 C 218.152344 93.101562 216.789062 94.109375 215.429688 95.03125 C 215.09375 95.273438 214.757812 95.507812 214.410156 95.726562 C 214.238281 95.828125 214.070312 95.949219 213.902344 96.058594 C 213.730469 96.171875 213.558594 96.28125 213.382812 96.390625 C 213.210938 96.496094 213.035156 96.59375 212.855469 96.695312 L 212.328125 97.003906 C 212.152344 97.109375 211.964844 97.203125 211.789062 97.3125 C 211.609375 97.417969 211.414062 97.496094 211.238281 97.601562 C 209.734375 98.371094 208.316406 99.28125 206.988281 100.324219 L 206.015625 101.148438 C 205.707031 101.4375 205.398438 101.730469 205.074219 102.019531 C 204.746094 102.308594 204.457031 102.617188 204.148438 102.914062 L 203.6875 103.371094 L 203.246094 103.847656 C 202.9375 104.152344 202.628906 104.460938 202.355469 104.800781 C 202.082031 105.136719 201.761719 105.453125 201.496094 105.792969 C 200.921875 106.457031 200.371094 107.144531 199.832031 107.847656 C 197.632812 110.714844 195.769531 113.785156 194.234375 117.054688 Z M 193.496094 116.878906 " fill-opacity="1" fill-rule="nonzero"/><path fill="#232323" d="M 170.871094 119.074219 C 169.402344 115.773438 167.597656 112.667969 165.457031 109.761719 C 164.933594 109.046875 164.390625 108.351562 163.835938 107.671875 C 163.5625 107.328125 163.269531 107 162.988281 106.667969 C 162.707031 106.335938 162.410156 106.019531 162.113281 105.699219 L 161.679688 105.21875 C 161.535156 105.058594 161.375 104.910156 161.230469 104.75 C 160.921875 104.441406 160.636719 104.136719 160.320312 103.828125 C 160.007812 103.519531 159.707031 103.230469 159.398438 102.9375 L 158.429688 102.101562 C 157.121094 101.03125 155.722656 100.097656 154.234375 99.296875 C 154.058594 99.191406 153.871094 99.097656 153.691406 98.992188 L 153.15625 98.683594 L 152.636719 98.375 C 152.457031 98.269531 152.285156 98.167969 152.109375 98.070312 C 151.9375 97.96875 151.769531 97.847656 151.605469 97.730469 C 151.4375 97.613281 151.269531 97.492188 151.097656 97.382812 C 150.757812 97.160156 150.421875 96.917969 150.09375 96.667969 C 148.753906 95.707031 147.410156 94.675781 145.980469 93.628906 C 145.800781 93.496094 145.625 93.359375 145.449219 93.21875 L 145.179688 93.003906 C 145.089844 92.9375 145 92.867188 144.90625 92.800781 C 144.539062 92.535156 144.175781 92.246094 143.804688 91.945312 C 143.4375 91.648438 143.050781 91.339844 142.679688 91.03125 C 142.3125 90.726562 141.914062 90.386719 141.53125 90.003906 L 141.679688 89.273438 C 143.671875 88.652344 145.710938 88.449219 147.785156 88.660156 C 149.828125 88.835938 151.796875 89.320312 153.6875 90.109375 C 155.582031 90.898438 157.265625 92.007812 158.738281 93.433594 C 159.09375 93.796875 159.449219 94.160156 159.796875 94.527344 L 160.054688 94.804688 L 160.304688 95.089844 L 160.796875 95.660156 L 161.292969 96.226562 C 161.457031 96.417969 161.601562 96.617188 161.769531 96.808594 L 162.246094 97.378906 C 162.410156 97.566406 162.574219 97.75 162.722656 97.953125 C 163.972656 99.46875 165.101562 101.070312 166.109375 102.757812 C 166.355469 103.179688 166.601562 103.597656 166.828125 104.027344 C 167.050781 104.457031 167.296875 104.875 167.503906 105.3125 C 167.929688 106.179688 168.332031 107.054688 168.703125 107.9375 C 169.441406 109.699219 170.054688 111.5 170.550781 113.34375 C 171.054688 115.171875 171.402344 117.023438 171.585938 118.910156 Z M 170.871094 119.074219 " fill-opacity="1" fill-rule="nonzero"/><path fill="#3babcd" d="M 130.964844 181.921875 C 136.984375 179.878906 157.902344 172.769531 163.792969 170.664062 C 163.945312 170.605469 164.101562 170.585938 164.265625 170.601562 C 164.425781 170.617188 164.578125 170.664062 164.71875 170.746094 C 164.859375 170.832031 164.976562 170.9375 165.066406 171.074219 C 165.160156 171.207031 165.21875 171.355469 165.246094 171.515625 L 165.339844 172.0625 L 171.636719 170.984375 C 171.886719 170.941406 172.136719 170.949219 172.386719 171.003906 C 172.636719 171.054688 172.867188 171.15625 173.078125 171.296875 C 173.289062 171.441406 173.464844 171.617188 173.605469 171.832031 C 173.75 172.042969 173.847656 172.273438 173.898438 172.523438 C 175.195312 178.699219 180.328125 199.582031 184.160156 227.933594 C 184.1875 228.132812 184.1875 228.332031 184.160156 228.53125 C 184.097656 228.917969 183.964844 229.277344 183.753906 229.605469 C 183.542969 229.933594 183.277344 230.207031 182.953125 230.421875 C 182.625 230.636719 182.269531 230.777344 181.886719 230.84375 C 181.5 230.910156 181.121094 230.894531 180.742188 230.800781 L 180.277344 230.6875 L 177.203125 233.253906 L 177.574219 234.710938 C 177.613281 234.875 177.625 235.042969 177.601562 235.210938 C 177.582031 235.378906 177.527344 235.539062 177.445312 235.6875 C 177.363281 235.835938 177.253906 235.964844 177.121094 236.070312 C 176.992188 236.175781 176.84375 236.257812 176.679688 236.304688 C 172.160156 237.707031 155.6875 242.21875 141.757812 238.429688 C 141.300781 238.304688 140.902344 238.078125 140.5625 237.746094 C 140.226562 237.414062 139.988281 237.023438 139.851562 236.566406 C 138.199219 231.066406 132.308594 210.253906 129.515625 184.207031 C 129.484375 183.964844 129.5 183.722656 129.554688 183.480469 C 129.609375 183.242188 129.703125 183.015625 129.835938 182.808594 C 129.96875 182.601562 130.132812 182.421875 130.324219 182.269531 C 130.519531 182.117188 130.734375 182 130.964844 181.921875 Z M 130.964844 181.921875 " fill-opacity="1" fill-rule="nonzero"/><path fill="#ffffff" d="M 177.574219 234.714844 C 177.613281 234.875 177.625 235.039062 177.601562 235.207031 C 177.582031 235.371094 177.53125 235.527344 177.453125 235.675781 C 177.371094 235.820312 177.269531 235.949219 177.140625 236.054688 C 177.011719 236.164062 176.871094 236.242188 176.710938 236.296875 L 158.953125 189.796875 L 165.414062 174.324219 L 169.8125 173.347656 C 170.035156 173.316406 170.253906 173.328125 170.472656 173.378906 C 170.691406 173.433594 170.894531 173.527344 171.078125 173.660156 C 171.257812 173.792969 171.410156 173.953125 171.53125 174.144531 C 171.648438 174.335938 171.726562 174.542969 171.769531 174.765625 C 173.070312 182.125 178.355469 211.824219 179.589844 217.421875 C 181 223.820312 182.449219 230.289062 180.273438 230.691406 L 177.195312 233.253906 Z M 177.574219 234.714844 " fill-opacity="1" fill-rule="nonzero"/><path fill="#3babcd" d="M 139.851562 236.570312 C 138.199219 231.0625 132.308594 210.253906 129.515625 184.207031 C 129.488281 183.964844 129.5 183.722656 129.554688 183.484375 C 129.613281 183.242188 129.707031 183.019531 129.839844 182.8125 C 129.96875 182.605469 130.132812 182.425781 130.328125 182.273438 C 130.519531 182.121094 130.734375 182.007812 130.964844 181.929688 C 136.988281 179.878906 157.902344 172.769531 163.792969 170.675781 C 163.929688 170.628906 164.070312 170.609375 164.214844 170.613281 C 164.363281 170.621094 164.5 170.65625 164.632812 170.71875 C 164.765625 170.785156 164.878906 170.871094 164.976562 170.976562 C 165.074219 171.085938 165.148438 171.210938 165.195312 171.347656 L 165.195312 171.511719 C 165.195312 171.511719 165.238281 171.710938 165.3125 172.082031 C 166.09375 175.859375 170.46875 197.253906 171.390625 203.621094 C 172.273438 209.730469 175.964844 227.875 177.238281 233.226562 L 177.203125 233.257812 L 177.574219 234.714844 C 177.613281 234.878906 177.625 235.046875 177.601562 235.214844 C 177.582031 235.382812 177.527344 235.542969 177.445312 235.691406 C 177.363281 235.839844 177.253906 235.964844 177.121094 236.074219 C 176.992188 236.179688 176.84375 236.257812 176.679688 236.308594 C 172.160156 237.707031 155.6875 242.222656 141.761719 238.433594 C 141.304688 238.308594 140.90625 238.082031 140.566406 237.75 C 140.226562 237.417969 139.988281 237.023438 139.851562 236.570312 Z M 139.851562 236.570312 " fill-opacity="1" fill-rule="nonzero"/><path fill="#232323" d="M 134.386719 208.5 C 134.386719 208.5 141.914062 206.578125 146.578125 211.34375 C 151.242188 216.105469 139.273438 226.785156 132.800781 221.917969 C 128.351562 218.578125 128.707031 209.609375 134.386719 208.5 Z M 134.386719 208.5 " fill-opacity="1" fill-rule="nonzero"/><path fill="#ffffff" d="M 137.941406 190.492188 C 138.15625 192.070312 138.480469 194.3125 138.867188 196.519531 C 138.929688 196.867188 139.058594 197.191406 139.25 197.488281 C 139.445312 197.78125 139.6875 198.027344 139.980469 198.226562 C 140.273438 198.421875 140.59375 198.554688 140.941406 198.625 C 141.289062 198.691406 141.636719 198.6875 141.980469 198.613281 L 154.988281 195.847656 L 159.320312 194.925781 C 159.652344 194.851562 159.960938 194.722656 160.242188 194.53125 C 160.523438 194.339844 160.757812 194.101562 160.949219 193.816406 C 161.136719 193.53125 161.265625 193.222656 161.335938 192.890625 C 161.402344 192.554688 161.40625 192.222656 161.34375 191.886719 L 159.902344 184.277344 C 159.835938 183.910156 159.691406 183.574219 159.476562 183.265625 C 159.265625 182.960938 158.996094 182.710938 158.675781 182.519531 C 158.351562 182.328125 158.003906 182.210938 157.632812 182.167969 C 157.261719 182.125 156.898438 182.164062 156.539062 182.277344 L 139.734375 187.660156 C 139.445312 187.75 139.175781 187.894531 138.933594 188.082031 C 138.691406 188.269531 138.488281 188.492188 138.324219 188.75 C 138.160156 189.007812 138.046875 189.289062 137.980469 189.589844 C 137.914062 189.886719 137.902344 190.191406 137.941406 190.492188 Z M 137.941406 190.492188 " fill-opacity="1" fill-rule="nonzero"/></svg>